<?xml version="1.0" encoding="utf-8"?>
<!-- Generator: Adobe Illustrator 26.5.0, SVG Export Plug-In . SVG Version: 6.00 Build 0)  -->
<svg version="1.1" id="BACKGROUND" xmlns="http://www.w3.org/2000/svg" xmlns:xlink="http://www.w3.org/1999/xlink" x="0px" y="0px"
	 viewBox="0 0 1200 1200" style="enable-background:new 0 0 1200 1200;" xml:space="preserve">
<g id="damJFY_00000031177196008640274600000004013706828204867753_">
	<g>
		<path d="M600.69,1181.36C280.92,1182.3,18.86,923.13,17.83,604.93C16.78,281.04,276.21,19.02,598.32,18.64
			c320.59-0.38,584.4,261.85,583.85,580.37C1181.62,920.59,922.18,1180.42,600.69,1181.36z M261.73,201.98
			c7.78,8.13,17.64,4.33,26.61,4.59c85.29,2.51,146.59,56.07,160.02,140.2c17.04,106.78,5.09,207.7-53.58,301.84
			c-34.12,54.75-70.25,108.65-96.42,168.14c-34.81,79.12-21.62,161.12,35.82,223.07c8.99,9.69,15.93,15.5,29.41,6.29
			c65.03-44.42,130.79-87.78,195.82-132.19c18.52-12.65,18.55-35.8,3.26-44.4c-51.93-29.21-77.02-81.53-114.16-123.22
			c-23.1-25.93-26.34-57.67-12.18-89.24c14.23-31.71,40.9-49.27,75.1-50.21c58.76-1.62,117.7-2.56,176.38,0.12
			c63.35,2.89,104.91,69.34,72.71,121.46c-31.69,51.29-65.83,103.13-119,137.06c-19.79,12.63-21.56,34.19-2.08,47.63
			c64.84,44.7,130.59,88.08,195.68,132.43c10.38,7.08,16.75,7.76,26.73-2c52.41-51.28,72.44-139.52,45.8-209.25
			c-18.57-48.62-44.84-93.29-73.99-136.03c-72.54-106.33-107.24-220.56-83.28-350.3c15.73-85.19,76.02-139.94,162.69-141.34
			c8.64-0.14,18.46,4.19,25.89-4.51C745.92,28.88,438.56,38.35,261.73,201.98z M229.31,968.4c-24.7-87.77,5.93-162.74,47.95-235.32
			c5.88-10.16,11.8-20.31,18.19-30.15c6.39-9.85,10.05-16.85-4.61-24.38c-30.36-15.6-31.74-41.48-18.42-69.08
			c14.38-29.81,38.4-26.06,62.95-14.86c10.25,4.67,18.94,9.61,26.11-4.39c25.37-49.57,41.68-100.94,35.63-159.52
			c-108.04,33.63-197.01,18.47-251.22-94.08c-8.07,14.93-19.28,26.22-17.01,33c12.93,38.58,3.46,66.28-33.18,84.37
			C63.41,564.8,67.6,674.24,107.42,782.5c4.58,12.46,9.53,13.7,23.19,10.14c25.13-6.55,63.52,21.7,72.63,49.53
			c10.17,31.09-9.11,45.38-34.19,56.33C185.28,925.5,206.1,946.88,229.31,968.4z M1053.39,862.56c-29.3-1.18-49.52-9.68-57.18-36.98
			c-4.82-17.18,0.38-30.81,14.18-39.98c21.63-14.38,43.72-15.74,64.55,2.9c13.78,12.33,15.5-2.43,18.01-9.48
			c25.93-72.91,36.82-147.97,30.34-225.29c-1.06-12.65-6.39-19.63-20.22-24.44c-33.07-11.5-35.11-22.48-15.4-51.77
			c6.63-9.85,19.29-15.95,13.13-33.15c-12.91-36.1-25.11-72.19-48.35-105.8c-14.14,23.58-25.26,46-43.94,62.54
			c-11.46,10.14-10.48,15.67,0.52,26.73c17.98,18.1,10.51,39.57-1.17,58.22c-19.99,31.92-50.24,17.2-76.92,14.14
			c-20.1-2.3-32.64-15-28.32-36.63c3.25-16.32-4.96-17.68-17.05-17.85c-10.57-0.15-21.12-1.76-31.68-1.74
			c-17.75,0.03-40.37-20.12-50.25-5.14c-8.92,13.53-0.61,38.45,0.19,58.34c0.09,2.33,0.34,4.78,1.13,6.94
			c5.74,15.77,1.94,35.02,33.85,29.95c26.4-4.19,51.39,19.58,60.94,45.59c8.04,21.91-8.46,36.64-30.28,43.63
			c-17.18,5.5-4.86,15.13-1.15,21.54c14.7,25.42,30.94,49.95,45.66,75.36c29.51,50.93,59.48,102.08,62.02,162.97
			c1.08,26.07-2.12,52.31-3.64,83.94C1006.75,935.25,1030.31,902.44,1053.39,862.56z M602.61,663.98c-27.06,0-54.12,0.32-81.16-0.13
			c-13.95-0.23-25.44,2.74-32.34,16.24c-7.08,13.86-1.42,25.06,6.98,35.6c22,27.58,43.58,55.54,66.51,82.34
			c22.7,26.53,49.83,27.51,72.36,1.8c24-27.39,45.98-56.56,68.66-85.11c8.44-10.63,13.58-22.04,6.17-35.68
			c-7.31-13.44-19.46-15.33-33.06-15.18C652.02,664.15,627.32,663.95,602.61,663.98z M887.06,388.64
			c59.47,1.01,106.04-34.76,116.71-90.03c2.42-12.56,6.48-27.09-12.7-30.35c-40.61-6.9-81.6-12.36-121.5,2.43
			c-32.7,12.12-68.84,59.99-59.98,83.57C822.71,389.14,856.66,387.17,887.06,388.64z M268.53,261.68
			c-12.85,0.94-25.76,1.44-38.55,2.9c-38.86,4.44-44.46,13.47-29.54,49.85c30.34,74.01,88.18,88.01,162.18,65.79
			c27.8-8.35,34.2-27.78,20.94-55.1C359.85,276.29,320.07,259.06,268.53,261.68z M407.73,1088.98c129.51,47.6,254.09,49.6,383.67-1
			c-47.81-38.6-47.71-38.35-93.59-20.47c-63.8,24.86-129.95,30.22-191.48,0.06C465.61,1047.61,438.63,1055.31,407.73,1088.98z
			 M682.84,1011.54c-27.38-18.56-49.5-33.39-71.43-48.51c-7.45-5.13-14.53-6.67-22.43-1.16c-22.66,15.81-45.41,31.49-71.47,49.54
			C573.51,1036.18,624.78,1035.36,682.84,1011.54z"/>
		<path d="M191.36,587.84c0.76,28.75-30.27,60.34-60.41,61.51c-31.02,1.2-47.26-13.2-47.67-42.28
			c-0.47-33.16,28.79-70.59,55.51-71.03C163.86,535.63,190.68,562.07,191.36,587.84z"/>
		<path d="M245.56,563.95c-24.96,0.09-41.69-12.02-42.16-36.82c-0.5-26.41,21.12-31.39,41.94-30.96
			c20.58,0.43,47.83,0.24,46.43,28.97C290.63,548.54,271.84,563.84,245.56,563.95z"/>
		<path d="M1032.55,676.4c-44.92-2.89-66.69-20.99-63.59-52.89c2.87-29.58,44.68-67.38,72.91-65.93
			c26.78,1.38,54.95,36.1,52.69,64.93C1092.1,653.94,1063.93,678.42,1032.55,676.4z"/>
	</g>
</g>
</svg>
